<?xml version="1.0" encoding="UTF-8"?> <!-- Generator: Adobe Illustrator 20.1.0, SVG Export Plug-In . SVG Version: 6.00 Build 0) --> <svg xmlns="http://www.w3.org/2000/svg" xmlns:xlink="http://www.w3.org/1999/xlink" id="Layer_1" x="0px" y="0px" viewBox="0 0 345 135" style="enable-background:new 0 0 345 135;" xml:space="preserve"> <style type="text/css"> .st0{fill:#FF0000;} </style> <g> <path class="st0" d="M108.6,28.7c0,1.2,0,2.9,0,4.6c8.1,9.2,12.7,21.4,12.7,34.1c0,13.3-4.6,24.8-12.7,34.1c0,1.7,0,3.5,0,5.2 c9.8-10.4,16.2-24.2,16.2-39.3s-6.4-28.9-16.2-39.3C108.6,28.1,108.6,28.7,108.6,28.7z"></path> <path class="st0" d="M79.1,67.4c39.8-27.1,31.2-50.2,11-52c-6.4-2.9-14.4-4-21.4-4c-15.6,0-29.4,6.4-39.8,16.7 C18.5,38.5,12.1,52.4,12.1,68s6.4,29.4,16.7,39.8c10.4,10.4,24.2,16.7,39.8,16.7c7.5,0,15-1.7,21.4-4 C110.3,117.6,119,94.6,79.1,67.4z M96.4,110.7c-0.6,1.7-0.6,1.7-2.3,2.9c-7.5,4.6-16.7,6.9-26,6.9c-14.4,0-27.7-5.8-37.5-15.6 S15,82.4,15,67.4c0-14.4,5.8-27.7,15.6-37.5s22.5-15.6,37.5-15.6c9.2,0,18.5,2.3,26,6.9c1.2,0.6,1.7,0.6,2.3,2.3 c4,12.1-11,27.7-36.4,36.4V31.6c-2.3,0.6-4,1.2-5.8,1.7c-3.5,1.7-6.9,3.5-9.8,6.4v54.9c2.9,2.3,6.4,4.6,9.8,6.4 c1.7,0.6,4,1.2,5.8,1.7V74.3C84.9,83.6,99.9,98.6,96.4,110.7z"></path> <path class="st0" d="M105.7,92.2c0.6,0.6,0.6,1.2,1.2,1.7c5.2-7.5,8.7-16.7,8.7-27.1c0-9.8-2.9-19.1-8.7-27.1 c0,0.6-0.6,1.2-1.2,1.7c-1.2,2.3-2.3,4.6-4,6.9c2.9,5.2,4.6,11.5,4.6,18.5c0,6.4-1.7,12.7-4.6,18.5 C103.4,88.2,105.1,90.5,105.7,92.2z"></path> <path class="st0" d="M41.6,94.6c-6.9-6.9-11-16.2-11-27.1s4-20.2,11-27.1c6.9-6.9,16.2-11,27.1-11c8.7,0,16.7,2.9,23.7,8.1 c1.2-1.7,1.7-2.9,2.3-4.6c0.6-1.2,0.6-2.3,1.2-4c-7.5-5.2-16.7-8.7-27.1-8.7c-12.7,0-24.8,5.2-33.5,13.9S21.4,54.3,21.4,67.6 c0,12.7,5.2,24.8,13.9,33.5S55.5,115,68.8,115c9.8,0,19.1-2.9,27.1-8.7c0-1.2-0.6-2.3-1.2-4s-1.7-2.9-2.3-4.6 c-6.4,5.2-14.4,8.1-23.7,8.1C57.8,105.5,48.5,101.5,41.6,94.6z"></path> <path class="st0" d="M331.4,41.4c0-5.8-3.5-8.7-10.4-9.2h-15v70.4h15c6.4,0,9.8-3.5,10.4-9.2v-26c0-4.6-1.2-5.8-2.9-8.1 c1.7-1.7,2.9-3.5,2.9-7.5V41.4z M323.9,91.1c0,2.3-1.2,4-4.6,4h-5.8V62.8h5.8c2.3,0,4.6,1.7,4.6,4.6V91.1z M323.9,51.8 c0,2.3-1.7,3.5-4.6,3.5h-5.8V39.1h5.8c3.5,0,4.6,1.7,4.6,4V51.8z"></path> <path class="st0" d="M247.1,41.4v10.4c0,3.5,1.2,5.8,2.9,7.5c-1.7,2.3-2.9,3.5-2.9,8.1v35.2h7.5V67.4c0-2.9,2.3-4.6,4.6-4.6h5.8 v39.8h7.5V32.2h-15C250.6,32.2,247.1,35.7,247.1,41.4z M264.5,39.7v16.2h-5.8c-2.9,0-4.6-1.7-4.6-3.5v-8.1c0-2.3,1.2-4,4.6-4h5.8 V39.7z"></path> <path class="st0" d="M176.7,39.1l-1.7-6.9c-6.4,1.2-9.2,5.2-9.8,10.4c0,1.7,0,3.5,0,5.2c0,6.4,0.6,8.1-5.8,8.1h-4.6V32.2h-6.9v70.4 h6.9l0.6-39.8h4c2.9,0,5.8,1.2,5.8,4.6v21.4c0,6.9,2.3,12.1,10.4,13.3l1.7-6.9c-2.9-1.2-4.6-1.2-4.6-6.9V66.8 c0-4.6-1.2-5.2-2.9-8.1c1.7-1.7,2.3-4,2.9-6.4c0.6-2.3,0-5.8,0-8.7C172.6,40.3,174.4,40.3,176.7,39.1z"></path> <path class="st0" d="M228.1,32.2c-5.2,0-10.4,2.9-12.1,8.7c-0.6,1.7-0.6,4.6-0.6,7.5V90c0,5.2-2.9,4.6-4.6,5.8l1.7,6.9 c2.3,0,5.2-1.7,6.4-2.9c2.9-2.9,3.5-5.8,4-9.8V45c0-2.9,1.2-5.2,3.5-5.2c0.6,0,1.7,0,2.3,0c2.9,0.6,4,2.3,4,5.8v57.7h7.5V48.9 c0-2.9,0-5.8-0.6-7.5C238.5,35.1,233.3,32.2,228.1,32.2z"></path> <path class="st0" d="M194,32.2c-5.2,0-10.4,2.9-12.1,8.7c-0.6,1.7-0.6,4.6-0.6,7.5v54.3h7.5V62.8h10.4v39.8h7.5V48.4 c0-2.9,0-5.8-0.6-7.5C204.4,35.1,199.2,32.2,194,32.2z M199.2,55.9h-10.4V45.5c0-2.9,1.2-5.2,3.5-5.2c0.6,0,1.7,0,2.3,0 c2.9,0.6,4,2.3,4,5.8L199.2,55.9z"></path> <path class="st0" d="M278.3,41.4v2.9v58.3h21.4v-7.5h-14.4V62.8h12.1v-7.5h-12.1V43.2c0-2.3,1.2-4,4.6-4h9.8v-7.5h-11.5 C281.8,32.2,278.3,35.7,278.3,41.4z"></path> </g> </svg> 