<?xml version="1.0" encoding="UTF-8"?> <!-- Generator: Adobe Illustrator 20.1.0, SVG Export Plug-In . SVG Version: 6.00 Build 0) --> <svg xmlns="http://www.w3.org/2000/svg" xmlns:xlink="http://www.w3.org/1999/xlink" id="Layer_1" x="0px" y="0px" viewBox="0 0 345 283" style="enable-background:new 0 0 345 283;" xml:space="preserve"> <style type="text/css"> .st0{fill:#FFFFFF;} </style> <g> <g> <path class="st0" d="M302.6,34.9c-14.9-17-35.7-26.3-58.4-26.3c-31.9,0-52.1,19.1-63.5,35.1c-2.9,4.2-5.4,8.3-7.5,12.2 c-2.1-3.9-4.6-8.1-7.5-12.2c-11.3-16-31.6-35.1-63.5-35.1c-22.7,0-43.4,9.3-58.4,26.3c-14.3,16.2-22.1,37.8-22.1,61 c0,25.2,9.8,48.7,31,73.8c18.9,22.5,46.1,45.6,77.5,72.4c11.7,10,23.9,20.3,36.8,31.6l0.4,0.3c1.7,1.5,3.8,2.2,5.8,2.2 c2.1,0,4.2-0.7,5.8-2.2l0.4-0.3c12.9-11.3,25-21.6,36.8-31.6c31.5-26.8,58.6-50,77.5-72.4c21.1-25.1,31-48.6,31-73.8 C324.7,72.7,316.9,51.1,302.6,34.9z M204.7,228.6c-10.1,8.6-20.5,17.5-31.5,27c-11-9.5-21.4-18.4-31.5-27 C80.1,176.1,39.5,141.5,39.5,95.9c0-18.8,6.3-36.3,17.7-49.3c11.5-13.1,27.5-20.3,45.1-20.3c24.3,0,40.1,15,49,27.6 c8,11.3,12.2,22.7,13.6,27c1.2,3.7,4.6,6.1,8.4,6.1c3.8,0,7.3-2.5,8.4-6.1c1.4-4.4,5.6-15.7,13.6-27c8.9-12.6,24.6-27.6,49-27.6 c17.5,0,33.5,7.2,45.1,20.3C300.7,59.6,307,77.1,307,95.9C307,141.5,266.3,176.1,204.7,228.6z"></path> </g> </g> </svg> 