<?xml version="1.0" encoding="UTF-8"?> <!-- Generator: Adobe Illustrator 20.1.0, SVG Export Plug-In . SVG Version: 6.00 Build 0) --> <svg xmlns="http://www.w3.org/2000/svg" xmlns:xlink="http://www.w3.org/1999/xlink" id="Layer_1" x="0px" y="0px" viewBox="0 0 150 150" style="enable-background:new 0 0 150 150;" xml:space="preserve"> <style type="text/css"> .st0{fill:#100C08;} .st1{fill:#AC162C;} .st2{fill:#DFAD00;} .st3{fill:#FFFFFF;} .st4{fill:#FFFFFF;stroke:#FFFFFF;stroke-width:12.196;stroke-miterlimit:10;} .st5{fill:#FFFFFF;stroke:#FFFFFF;stroke-width:6.098;stroke-miterlimit:10;} .st6{fill-rule:evenodd;clip-rule:evenodd;fill:#FFFFFF;} .st7{fill:#1D1D1B;} .st8{fill:#372220;} .st9{fill:none;stroke:#402E2C;stroke-miterlimit:10;} .st10{fill:#FB4639;} .st11{fill-rule:evenodd;clip-rule:evenodd;fill:#372220;} .st12{fill:#402E2C;} .st13{fill:#7F706B;} .st14{fill:#DFDBD4;} .st15{fill:#F84841;} .st16{fill:#EDE9E0;} .st17{fill:url(#SVGID_1_);} .st18{opacity:0.3;} .st19{fill:#FFFFFF;stroke:#999999;stroke-width:0.8308;stroke-miterlimit:10;} .st20{fill:url(#SVGID_2_);} .st21{fill:#EE3535;} .st22{fill:#3B1E10;} .st23{fill:#999999;} .st24{fill:#186C64;} .st25{fill:#A6192E;} .st26{fill:none;stroke:#A6192E;stroke-width:2;stroke-miterlimit:10;} .st27{fill:none;stroke:#735A4F;stroke-miterlimit:10;} .st28{fill-rule:evenodd;clip-rule:evenodd;fill:#EE3535;} .st29{fill-rule:evenodd;clip-rule:evenodd;fill:#513628;} .st30{fill:#D8C2AF;} .st31{fill:url(#SVGID_3_);} .st32{fill:none;stroke:#000000;stroke-width:2.3185;stroke-miterlimit:10;} .st33{fill:#F2F2F2;} .st34{fill:#E6E6E6;} .st35{fill:#BDCCD4;} .st36{fill:#164450;} .st37{fill:#CCCCCC;} .st38{fill:#CCCCCC;stroke:#BDCCD4;stroke-width:0.5657;stroke-miterlimit:10;} .st39{fill:#231F20;} .st40{fill:#B3B3B3;} .st41{fill:#CCCCCC;stroke:#BDCCD4;stroke-width:0.836;stroke-miterlimit:10;} .st42{fill:none;stroke:#000000;stroke-width:1.4779;stroke-miterlimit:10;} .st43{fill:#F0ECE3;} .st44{fill:#EE3535;stroke:#FFFFFF;stroke-width:1.9266;stroke-miterlimit:10;} </style> <g> <path d="M36.5,97.3L36.5,97.3c10,0,19.9-1.7,29.5-3.3c9.4-1.6,19.2-3.3,28.8-3.3c0.2,0,0.5,0,0.7,0c0,0,0-0.1,0-0.1l0,0l1.9-0.3 l-0.4,0.1l0.4-0.1l-1,0.2l0,0l-0.4,0.1l0.4-0.1l0,0l1-0.2c0,0,0,0.2,0.1,0.5c2.3,0.1,4.6,0.2,6.7,0.5c2.8,0.4,4.8-1.5,5-4.2 c0.1-2.2-1.2-4.7-4.1-5.1c-3.2-0.4-6.5-0.6-10-0.6c-10,0-19.9,1.7-29.5,3.3C56.3,86.3,46.5,88,36.9,88c-4.9,0-9.3-0.4-13.6-1.3 c-0.3-0.1-0.6-0.1-0.9-0.1c-2.2,0-3.9,1.6-4.1,4c-0.2,2.3,1.1,4.8,3.9,5.4C26.7,96.9,31.4,97.3,36.5,97.3z"></path> <path d="M81.3,66c-9.6,2.2-19.6,4.5-29.2,4.5c-3.3,0-6.3-0.3-9.3-0.8c-0.3-0.1-0.6-0.1-0.9-0.1c-2.3,0-4,1.7-4.2,4 c-0.2,2.3,1.1,4.8,4,5.3c3.5,0.6,7.1,0.9,11,0.9c10.5,0,20.9-2.3,30.9-4.5l3.4-0.7c8.1-1.8,16.6-3.6,24.8-3.6 c6.2,0,11.6,1.1,16.5,3.2c2.6,1.2,5.5-0.4,6.1-3.3c0.5-2.3-0.6-4.5-2.7-5.4c-6.3-2.8-13-4.1-20.6-4.1C101.2,61.5,91.1,63.8,81.3,66 z"></path> <path d="M139.8,106.3c0.7-0.2,1-0.7,0.9-1.4l-0.9-16.6c-0.1-0.9-0.9-1.8-1.8-1.9L121.6,84c-0.5-0.1-0.9,0-1.2,0.3 c-0.1,0.1-0.2,0.2-0.3,0.5c-0.2,0.7-0.1,1.4,0.4,1.9l4.3,4.7l-0.8,0.7c-1.3,1.2-2.8,2.2-4.4,3.2c-1.6,0.9-3,1.6-4.4,2.1 c-1.3,0.5-2.6,0.9-3.7,1.2c-2.4,0.6-3.6,0.7-3.7,0.7c-0.7,0.1-1.3,0.7-1.3,1.4c0,0.9,0.5,1.5,1.3,1.9l0.1,0c0.6,0.2,1.3,0.5,3.4,1 c2.1,0.5,4.2,0.9,7.3,0.9c3.1,0.1,6-0.2,9.5-1.4c1.8-0.6,3.5-1.4,5.2-2.3l4.4,4.9C138.5,106.3,139.1,106.5,139.8,106.3z"></path> <path d="M13,51.4c-0.7,0.3-1,0.8-1,1.4l-0.7,15.6c0,0.9,0.7,1.6,1.5,1.7l15.6,0.7c0.5,0,0.8-0.1,1.2-0.4c0.1-0.1,0.2-0.3,0.4-0.5 c0.3-0.7,0.2-1.3-0.2-1.8l-3.7-4.1l0.8-0.7c1.4-1.2,2.9-2.4,4.5-3.4c1.6-1,3.1-1.8,4.4-2.4c1.3-0.6,2.6-1.1,3.7-1.5 c2.4-0.8,3.5-1,3.7-1c0.7-0.2,1.3-0.8,1.4-1.5c0.1-0.8-0.3-1.3-1.1-1.6l-0.1,0c-0.6-0.1-1.2-0.4-3.2-0.7c-2-0.3-3.9-0.4-7-0.2 c-3,0.2-5.8,0.8-9.3,2.2c-1.8,0.7-3.5,1.6-5.2,2.7l-3.8-4.2C14.2,51.3,13.6,51.2,13,51.4z"></path> </g> </svg> 