<?xml version="1.0" encoding="UTF-8"?> <!-- Generator: Adobe Illustrator 20.1.0, SVG Export Plug-In . SVG Version: 6.00 Build 0) --> <svg xmlns="http://www.w3.org/2000/svg" xmlns:xlink="http://www.w3.org/1999/xlink" id="Layer_1" x="0px" y="0px" viewBox="0 0 150 150" style="enable-background:new 0 0 150 150;" xml:space="preserve"> <style type="text/css"> .st0{fill:#100C08;} .st1{fill:#AC162C;} .st2{fill:#DFAD00;} .st3{fill:#FFFFFF;} .st4{fill:#FFFFFF;stroke:#FFFFFF;stroke-width:12.196;stroke-miterlimit:10;} .st5{fill:#FFFFFF;stroke:#FFFFFF;stroke-width:6.098;stroke-miterlimit:10;} .st6{fill-rule:evenodd;clip-rule:evenodd;fill:#FFFFFF;} .st7{fill:#1D1D1B;} .st8{fill:#372220;} .st9{fill:none;stroke:#402E2C;stroke-miterlimit:10;} .st10{fill:#FB4639;} .st11{fill-rule:evenodd;clip-rule:evenodd;fill:#372220;} .st12{fill:#402E2C;} .st13{fill:#7F706B;} .st14{fill:#DFDBD4;} .st15{fill:#F84841;} .st16{fill:#EDE9E0;} .st17{fill:url(#SVGID_1_);} .st18{opacity:0.3;} .st19{fill:#FFFFFF;stroke:#999999;stroke-width:0.8308;stroke-miterlimit:10;} .st20{fill:url(#SVGID_2_);} .st21{fill:#EE3535;} .st22{fill:#3B1E10;} .st23{fill:#999999;} .st24{fill:#186C64;} .st25{fill:#A6192E;} .st26{fill:none;stroke:#A6192E;stroke-width:2;stroke-miterlimit:10;} .st27{fill:none;stroke:#735A4F;stroke-miterlimit:10;} .st28{fill-rule:evenodd;clip-rule:evenodd;fill:#EE3535;} .st29{fill-rule:evenodd;clip-rule:evenodd;fill:#513628;} .st30{fill:#D8C2AF;} .st31{fill:url(#SVGID_3_);} .st32{fill:none;stroke:#000000;stroke-width:2.3185;stroke-miterlimit:10;} .st33{fill:#F2F2F2;} .st34{fill:#E6E6E6;} .st35{fill:#BDCCD4;} .st36{fill:#164450;} .st37{fill:#CCCCCC;} .st38{fill:#CCCCCC;stroke:#BDCCD4;stroke-width:0.5657;stroke-miterlimit:10;} .st39{fill:#231F20;} .st40{fill:#B3B3B3;} .st41{fill:#CCCCCC;stroke:#BDCCD4;stroke-width:0.836;stroke-miterlimit:10;} .st42{fill:none;stroke:#000000;stroke-width:1.4779;stroke-miterlimit:10;} .st43{fill:#F0ECE3;} .st44{fill:#EE3535;stroke:#FFFFFF;stroke-width:1.9266;stroke-miterlimit:10;} </style> <g id="Alarm_Clock_1_"> <path d="M37.8,50.2c-0.6,0-1.2-0.2-1.6-0.7l-7-7c-0.9-0.9-0.9-2.4,0-3.3c0.9-0.9,2.4-0.9,3.3,0l7,7c0.9,0.9,0.9,2.4,0,3.3 C39,50,38.4,50.2,37.8,50.2z"></path> <path d="M19.7,32.1c-0.6,0-1.2-0.2-1.6-0.7L13.7,27c-0.9-0.9-0.9-2.4,0-3.3c0.9-0.9,2.4-0.9,3.3,0l4.4,4.4c0.9,0.9,0.9,2.4,0,3.3 C20.9,31.8,20.3,32.1,19.7,32.1z"></path> <path d="M127.3,32.1c-0.6,0-1.2-0.2-1.6-0.7c-0.9-0.9-0.9-2.4,0-3.3l4.4-4.4c0.9-0.9,2.4-0.9,3.3,0c0.9,0.9,0.9,2.4,0,3.3l-4.4,4.4 C128.5,31.8,127.9,32.1,127.3,32.1z"></path> <path d="M108.7,50.2c-0.6,0-1.2-0.2-1.6-0.7c-0.9-0.9-0.9-2.4,0-3.3l7-7c0.9-0.9,2.4-0.9,3.3,0c0.9,0.9,0.9,2.4,0,3.3l-7,7 C109.9,50,109.3,50.2,108.7,50.2z"></path> <g> <path d="M20.3,138.6c-0.4,0-0.8-0.1-1.2-0.3c-1.1-0.6-1.5-2.1-0.8-3.2l10.2-17.6c0.6-1.1,2.1-1.5,3.2-0.8c1.1,0.6,1.5,2.1,0.8,3.2 l-10.2,17.7C21.9,138.1,21.1,138.6,20.3,138.6z"></path> <path d="M32.4,145.5c-0.4,0-0.8-0.1-1.2-0.3c-1.1-0.7-1.5-2.1-0.8-3.2l8.2-14c0.6-1.1,2.1-1.5,3.2-0.8c1.1,0.6,1.5,2.1,0.8,3.2 l-8.2,14C33.9,145.1,33.2,145.5,32.4,145.5z"></path> <path d="M26.4,149c-1.6,0-3.2-0.4-4.6-1.2c-4.4-2.6-5.9-8.2-3.4-12.6c0.6-1.1,2.1-1.5,3.2-0.8c1.1,0.6,1.5,2.1,0.8,3.2 c-1.3,2.2-0.5,5,1.7,6.3c1.1,0.6,2.3,0.8,3.5,0.5c1.2-0.3,2.2-1.1,2.8-2.1c0.6-1.1,2.1-1.5,3.2-0.9c1.1,0.6,1.5,2.1,0.9,3.2 c-1.2,2.1-3.2,3.7-5.6,4.3C28,148.9,27.2,149,26.4,149z"></path> </g> <g> <path d="M127.1,138.6c-0.8,0-1.6-0.4-2-1.2l-10.3-17.7c-0.6-1.1-0.3-2.5,0.8-3.2c1.1-0.6,2.5-0.3,3.2,0.8l10.2,17.6 c0.6,1.1,0.3,2.5-0.8,3.2C127.9,138.5,127.5,138.6,127.1,138.6z"></path> <path d="M115,145.5c-0.8,0-1.6-0.4-2-1.1l-8.2-14c-0.7-1.1-0.3-2.5,0.8-3.2c1.1-0.7,2.5-0.3,3.2,0.8l8.2,14 c0.7,1.1,0.3,2.5-0.8,3.2C115.8,145.4,115.4,145.5,115,145.5z"></path> <path d="M121,149c-3.2,0-6.3-1.7-8-4.6c-0.6-1.1-0.3-2.5,0.9-3.2c1.1-0.6,2.5-0.3,3.2,0.9c1.3,2.2,4.1,3,6.3,1.7 c2.2-1.3,3-4.1,1.7-6.3c-0.6-1.1-0.3-2.5,0.9-3.2c1.1-0.6,2.5-0.3,3.2,0.8c2.5,4.4,1,10.1-3.4,12.6C124.2,148.6,122.6,149,121,149 z"></path> </g> <path d="M73.5,133.4L73.5,133.4c-25.2,0-45.7-20.5-45.7-45.7C27.9,62.5,48.3,42,73.5,42c12.2,0,23.7,4.8,32.3,13.4 c8.6,8.6,13.4,20.1,13.4,32.3c0,12.2-4.8,23.7-13.4,32.3C97.2,128.6,85.7,133.4,73.5,133.4z M73.5,45.1C50.1,45.1,31,64.2,31,87.7 c0,23.5,19.1,42.6,42.6,42.6c11.4,0,22.1-4.4,30.1-12.5c8-8,12.5-18.7,12.5-30.1s-4.4-22.1-12.5-30.1 C95.6,49.5,84.9,45.1,73.5,45.1z"></path> <path d="M73.6,143.8L73.6,143.8c-30.9,0-56-25.2-56-56.1c0-30.9,25.1-56,56-56c15,0,29.1,5.8,39.6,16.4 c10.6,10.6,16.4,24.7,16.4,39.6c0,15-5.8,29-16.4,39.6C102.6,137.9,88.6,143.8,73.6,143.8z M73.6,37.9c-27.5,0-49.8,22.4-49.8,49.8 c0,27.5,22.4,49.8,49.8,49.9c13.3,0,25.8-5.2,35.3-14.6c9.4-9.4,14.6-21.9,14.6-35.3c0-13.3-5.2-25.8-14.6-35.2 C99.4,43,86.9,37.9,73.6,37.9z"></path> <g> <path d="M73.6,61.8c-0.9,0-1.5-0.7-1.5-1.5v-7.9c0-0.9,0.7-1.6,1.5-1.6c0.9,0,1.6,0.7,1.6,1.6v7.9C75.2,61.1,74.5,61.8,73.6,61.8z "></path> <path d="M60,65.4c-0.5,0-1.1-0.3-1.3-0.8l-4-6.8c-0.4-0.7-0.2-1.7,0.6-2.1c0.7-0.4,1.7-0.2,2.1,0.6l4,6.8c0.4,0.7,0.2,1.7-0.6,2.1 C60.5,65.3,60.3,65.4,60,65.4z"></path> <path d="M49.9,75.4c-0.3,0-0.5-0.1-0.8-0.2l-6.9-4c-0.7-0.4-1-1.4-0.6-2.1c0.4-0.7,1.4-1,2.1-0.6l6.8,4c0.7,0.4,1,1.4,0.6,2.1 C50.9,75.1,50.4,75.4,49.9,75.4z"></path> <path d="M46.2,89.3h-7.9c-0.9,0-1.5-0.7-1.5-1.5c0-0.9,0.7-1.6,1.5-1.6h7.9c0.9,0,1.5,0.7,1.5,1.6C47.8,88.6,47.1,89.3,46.2,89.3z "></path> <path d="M42.9,106.9c-0.5,0-1.1-0.3-1.3-0.8c-0.4-0.7-0.2-1.7,0.6-2.1l6.9-4c0.7-0.4,1.7-0.2,2.1,0.6c0.4,0.7,0.2,1.7-0.6,2.1 l-6.8,4C43.4,106.8,43.2,106.9,42.9,106.9z"></path> <path d="M55.8,119.9c-0.3,0-0.5-0.1-0.8-0.2c-0.7-0.4-1-1.4-0.6-2.1l3.9-6.9c0.4-0.7,1.4-1,2.1-0.6c0.7,0.4,1,1.4,0.6,2.1l-4,6.9 C56.9,119.6,56.3,119.9,55.8,119.9z"></path> <path d="M73.7,124.7c-0.9,0-1.6-0.7-1.6-1.6v-7.9c0-0.9,0.7-1.5,1.6-1.5c0.9,0,1.5,0.7,1.5,1.5v7.9 C75.2,124,74.5,124.7,73.7,124.7z"></path> <path d="M91.2,120c-0.5,0-1.1-0.3-1.3-0.8l-4-6.8c-0.4-0.7-0.2-1.7,0.6-2.1c0.7-0.4,1.7-0.2,2.1,0.6l4,6.8 c0.4,0.7,0.2,1.7-0.6,2.1C91.7,119.9,91.5,120,91.2,120z"></path> <path d="M104.2,107.1c-0.3,0-0.5-0.1-0.8-0.2l-6.8-3.9c-0.7-0.4-1-1.4-0.6-2.1c0.4-0.7,1.4-1,2.1-0.6l6.8,4c0.7,0.4,1,1.4,0.6,2.1 C105.3,106.8,104.7,107.1,104.2,107.1z"></path> <path d="M101,89.3c-0.9,0-1.5-0.7-1.5-1.5s0.7-1.5,1.5-1.5l7.9,0l0,0c0.9,0,1.5,0.7,1.5,1.5c0,0.9-0.7,1.6-1.5,1.6L101,89.3 L101,89.3z"></path> <path d="M97.5,75.7c-0.5,0-1.1-0.3-1.3-0.8c-0.4-0.7-0.2-1.7,0.6-2.1l6.8-4c0.7-0.4,1.7-0.2,2.1,0.6c0.4,0.7,0.2,1.7-0.6,2.1 l-6.8,4C98,75.6,97.8,75.7,97.5,75.7z"></path> <path d="M87.5,65.5c-0.3,0-0.5-0.1-0.8-0.2c-0.7-0.4-1-1.4-0.6-2.1l3.9-6.9c0.4-0.7,1.4-1,2.1-0.6c0.7,0.4,1,1.4,0.6,2.1l-3.9,6.8 C88.6,65.3,88,65.5,87.5,65.5z"></path> </g> <path d="M73.5,93.6c-3.3,0-5.9-2.7-5.9-5.9s2.7-5.9,5.9-5.9c3.3,0,5.9,2.7,5.9,5.9S76.7,93.6,73.5,93.6z M73.5,86.1 c-0.8,0-1.5,0.7-1.5,1.5c0,0.8,0.7,1.5,1.5,1.5c0.8,0,1.5-0.7,1.5-1.5C74.9,86.8,74.3,86.1,73.5,86.1z"></path> <path d="M103.4,97.2c-0.2,0-0.4,0-0.6-0.1l-30-7.3c-1.2-0.3-2-1.6-1.7-2.8c0.3-1.2,1.6-2,2.8-1.7l30,7.3c1.3,0.3,2,1.6,1.7,2.8 C105.4,96.5,104.4,97.2,103.4,97.2z"></path> <path d="M54.9,100.5c-0.8,0-1.6-0.4-2-1.2c-0.6-1.1-0.2-2.5,0.9-3.2L69,87.6c1.1-0.6,2.5-0.2,3.2,0.9c0.6,1.1,0.2,2.5-0.9,3.2 L56,100.2C55.6,100.4,55.2,100.5,54.9,100.5z"></path> <path d="M15.7,56.8c-0.1,0-0.2,0-0.2,0c-0.7-0.1-1.3-0.4-1.6-0.9c-6.4-8.6-4.5-19.3,4.9-27.8c5-4.6,10.8-7.1,16.2-7.1 c4.4,0,8.5,1.6,12,4.8c0.5,0.4,0.8,1.1,0.8,1.7c0,0.7-0.3,1.3-0.8,1.7L17.2,56.2C16.8,56.6,16.2,56.8,15.7,56.8z M34.9,25.6 c-4.2,0-8.9,2.1-13.1,5.9c-6.8,6.2-8.8,13.3-5.7,19.4l25.6-23.3C39.6,26.3,37.4,25.6,34.9,25.6z"></path> <path d="M130.6,56.8c-0.6,0-1.1-0.2-1.6-0.6L99.3,29.2c-0.5-0.4-0.8-1.1-0.8-1.7c0-0.7,0.3-1.3,0.8-1.7c3.5-3.1,7.6-4.8,12-4.8 c5.4,0,11.1,2.5,16.2,7.1c9.4,8.6,11.3,19.3,4.9,27.9c-0.4,0.5-1,0.9-1.6,0.9C130.8,56.8,130.7,56.8,130.6,56.8z M104.5,27.6 l25.6,23.3c3.1-6.2,1.1-13.3-5.7-19.4C117.8,25.5,110.3,23.9,104.5,27.6z"></path> <path d="M46.1,26.8c-4.7,0-9.2-1.1-10-1.2c-1.2-0.3-2-1.6-1.7-2.8c0.3-1.3,1.6-2,2.8-1.7c4,1,11.5,1.9,14.6,0 c1.3-0.8,1.9-3,2.5-5.5C55.8,9.8,57.9,1,73.5,1c1.3,0,2.3,1,2.3,2.3s-1,2.3-2.3,2.3c-11.9,0-13.2,5.4-14.6,11 c-0.8,3.3-1.6,6.7-4.7,8.5C52,26.4,49,26.8,46.1,26.8z"></path> <path d="M101,26.8c-2.9,0-5.9-0.4-8.1-1.7c-3.1-1.8-3.9-5.2-4.7-8.5c-1.3-5.7-2.6-11-14.6-11c-1.3,0-2.3-1-2.3-2.3s1-2.3,2.3-2.3 c15.6,0,17.7,8.8,19.1,14.6c0.6,2.6,1.1,4.8,2.5,5.5c3.6,2,12,0.6,14.6-0.1c1.2-0.3,2.5,0.5,2.8,1.7c0.3,1.2-0.5,2.5-1.7,2.8 C110.2,25.8,105.7,26.8,101,26.8z"></path> </g> </svg> 