<?xml version="1.0" encoding="UTF-8"?> <!-- Generator: Adobe Illustrator 20.1.0, SVG Export Plug-In . SVG Version: 6.00 Build 0) --> <svg xmlns="http://www.w3.org/2000/svg" xmlns:xlink="http://www.w3.org/1999/xlink" id="Layer_1" x="0px" y="0px" viewBox="0 0 150 150" style="enable-background:new 0 0 150 150;" xml:space="preserve"> <style type="text/css"> .st0{fill:#100C08;} .st1{fill:#AC162C;} .st2{fill:#DFAD00;} .st3{fill:#FFFFFF;} .st4{fill:#FFFFFF;stroke:#FFFFFF;stroke-width:12.196;stroke-miterlimit:10;} .st5{fill:#FFFFFF;stroke:#FFFFFF;stroke-width:6.098;stroke-miterlimit:10;} .st6{fill-rule:evenodd;clip-rule:evenodd;fill:#FFFFFF;} .st7{fill:#1D1D1B;} .st8{fill:#372220;} .st9{fill:none;stroke:#402E2C;stroke-miterlimit:10;} .st10{fill:#FB4639;} .st11{fill-rule:evenodd;clip-rule:evenodd;fill:#372220;} .st12{fill:#402E2C;} .st13{fill:#7F706B;} .st14{fill:#DFDBD4;} .st15{fill:#F84841;} .st16{fill:#EDE9E0;} .st17{fill:url(#SVGID_1_);} .st18{opacity:0.3;} .st19{fill:#FFFFFF;stroke:#999999;stroke-width:0.8308;stroke-miterlimit:10;} .st20{fill:url(#SVGID_2_);} .st21{fill:#EE3535;} .st22{fill:#3B1E10;} .st23{fill:#999999;} .st24{fill:#186C64;} .st25{fill:#A6192E;} .st26{fill:none;stroke:#A6192E;stroke-width:2;stroke-miterlimit:10;} .st27{fill:none;stroke:#735A4F;stroke-miterlimit:10;} .st28{fill-rule:evenodd;clip-rule:evenodd;fill:#EE3535;} .st29{fill-rule:evenodd;clip-rule:evenodd;fill:#513628;} .st30{fill:#D8C2AF;} .st31{fill:url(#SVGID_3_);} .st32{fill:none;stroke:#000000;stroke-width:2.3185;stroke-miterlimit:10;} .st33{fill:#F2F2F2;} .st34{fill:#E6E6E6;} .st35{fill:#BDCCD4;} .st36{fill:#164450;} .st37{fill:#CCCCCC;} .st38{fill:#CCCCCC;stroke:#BDCCD4;stroke-width:0.5657;stroke-miterlimit:10;} .st39{fill:#231F20;} .st40{fill:#B3B3B3;} .st41{fill:#CCCCCC;stroke:#BDCCD4;stroke-width:0.836;stroke-miterlimit:10;} .st42{fill:none;stroke:#000000;stroke-width:1.4779;stroke-miterlimit:10;} .st43{fill:#F0ECE3;} .st44{fill:#EE3535;stroke:#FFFFFF;stroke-width:1.9266;stroke-miterlimit:10;} </style> <g> <g> <g> <path d="M75.5,29.2l0-8.3c0-1.5-1.2-2.8-2.8-2.8c-1.5,0-2.8,1.2-2.8,2.8v8.3C36.3,30.7,9.3,58.5,9.3,92.6c0,1.5,1.2,2.8,2.8,2.8 c6.3,0,9.5-3.6,12.1-6.4c2.4-2.6,4.2-4.6,8.1-4.6c3.8,0,5.7,2,8.1,4.6c2.1,2.3,4.7,5.1,9,6.1c0.4,0.2,0.8,0.4,1.3,0.4 c0.2,0,0.3-0.1,0.5-0.1c0.4,0,0.9,0.1,1.4,0.1c6.3,0,9.5-3.6,12.1-6.4c1.7-1.9,3.2-3.5,5.3-4.2v46.5c0,0.1,0,0.2,0,0.3 c0.2,7.5,6.3,13.5,13.8,13.5c7.6,0,13.8-6.2,13.8-13.8c0-1.5-1.2-2.8-2.8-2.8c-1.5,0-2.8,1.2-2.8,2.8c0,4.6-3.7,8.3-8.3,8.3 s-8.3-3.7-8.3-8.3c0-0.1,0-0.2,0-0.3V84.7c2.1,0.7,3.6,2.3,5.3,4.2c2.6,2.9,5.9,6.4,12.1,6.4c0.5,0,0.9-0.1,1.4-0.1 c0.2,0,0.3,0.1,0.5,0.1c0.5,0,0.9-0.2,1.3-0.4c4.3-1,6.9-3.7,9-6c2.4-2.6,4.2-4.6,8.1-4.6c3.8,0,5.7,2,8.1,4.6 c2.6,2.9,5.9,6.4,12.2,6.4c1.5,0,2.8-1.2,2.8-2.8C136.2,58.5,109.2,30.7,75.5,29.2z M47.9,88.5c-1.3-0.8-2.3-2-3.5-3.3 c-2.6-2.9-5.9-6.4-12.1-6.4s-9.5,3.6-12.1,6.4c-1.7,1.9-3.1,3.4-5.2,4.2c1.5-27.7,22.6-50.1,49.5-54 C57.7,42.7,48.7,58.2,47.9,88.5z M84.8,85.2c-2.6-2.9-5.9-6.4-12.1-6.4s-9.5,3.6-12.2,6.4c-2.1,2.3-3.9,4.2-7.1,4.6 c0.7-37.9,14.9-51.4,19.2-54.6c4.3,3.2,18.5,16.7,19.2,54.6C88.8,89.4,87,87.6,84.8,85.2z M125.3,85.2c-2.6-2.9-5.9-6.4-12.2-6.4 c-6.3,0-9.5,3.6-12.2,6.4c-1.2,1.3-2.3,2.5-3.5,3.3C96.7,58.2,87.7,42.7,81,35.3c27,3.9,48,26.4,49.5,54 C128.5,88.6,127,87.1,125.3,85.2z"></path> </g> </g> <path d="M20.3,14.8c0,0-7.4,14.5-7.4,18.6c0,4.1,3.3,7.4,7.4,7.4s7.4-3.3,7.4-7.4C27.7,29.3,20.3,14.8,20.3,14.8z"></path> <path d="M41.1,5.1c0,0-5.5,10.9-5.5,13.9s2.5,5.5,5.5,5.5s5.5-2.5,5.5-5.5S41.1,5.1,41.1,5.1z"></path> </g> </svg> 