<?xml version="1.0" encoding="UTF-8"?> <!-- Generator: Adobe Illustrator 20.1.0, SVG Export Plug-In . SVG Version: 6.00 Build 0) --> <svg xmlns="http://www.w3.org/2000/svg" xmlns:xlink="http://www.w3.org/1999/xlink" id="Layer_1" x="0px" y="0px" viewBox="0 0 150 150" style="enable-background:new 0 0 150 150;" xml:space="preserve"> <style type="text/css"> .st0{fill:#100C08;} .st1{fill:#AC162C;} .st2{fill:#DFAD00;} .st3{fill:#FFFFFF;} .st4{fill:#FFFFFF;stroke:#FFFFFF;stroke-width:12.196;stroke-miterlimit:10;} .st5{fill:#FFFFFF;stroke:#FFFFFF;stroke-width:6.098;stroke-miterlimit:10;} .st6{fill-rule:evenodd;clip-rule:evenodd;fill:#FFFFFF;} .st7{fill:#1D1D1B;} .st8{fill:#372220;} .st9{fill:none;stroke:#402E2C;stroke-miterlimit:10;} .st10{fill:#FB4639;} .st11{fill-rule:evenodd;clip-rule:evenodd;fill:#372220;} .st12{fill:#402E2C;} .st13{fill:#7F706B;} .st14{fill:#DFDBD4;} .st15{fill:#F84841;} .st16{fill:#EDE9E0;} .st17{fill:url(#SVGID_1_);} .st18{opacity:0.3;} .st19{fill:#FFFFFF;stroke:#999999;stroke-width:0.8308;stroke-miterlimit:10;} .st20{fill:url(#SVGID_2_);} .st21{fill:#EE3535;} .st22{fill:#3B1E10;} .st23{fill:#999999;} .st24{fill:#186C64;} .st25{fill:#A6192E;} .st26{fill:none;stroke:#A6192E;stroke-width:2;stroke-miterlimit:10;} .st27{fill:none;stroke:#735A4F;stroke-miterlimit:10;} .st28{fill-rule:evenodd;clip-rule:evenodd;fill:#EE3535;} .st29{fill-rule:evenodd;clip-rule:evenodd;fill:#513628;} .st30{fill:#D8C2AF;} .st31{fill:url(#SVGID_3_);} .st32{fill:none;stroke:#000000;stroke-width:2.3185;stroke-miterlimit:10;} .st33{fill:#F2F2F2;} .st34{fill:#E6E6E6;} .st35{fill:#BDCCD4;} .st36{fill:#164450;} .st37{fill:#CCCCCC;} .st38{fill:#CCCCCC;stroke:#BDCCD4;stroke-width:0.5657;stroke-miterlimit:10;} .st39{fill:#231F20;} .st40{fill:#B3B3B3;} .st41{fill:#CCCCCC;stroke:#BDCCD4;stroke-width:0.836;stroke-miterlimit:10;} .st42{fill:none;stroke:#000000;stroke-width:1.4779;stroke-miterlimit:10;} .st43{fill:#F0ECE3;} .st44{fill:#EE3535;stroke:#FFFFFF;stroke-width:1.9266;stroke-miterlimit:10;} </style> <path d="M107.3,32.7C105.5,33.5,64,50.4,52.1,71c-8.1,14-4,31.5,8.7,40.7l-4.8,8.3c-0.9,1.5-0.4,3.4,1.1,4.2 c1.5,0.9,3.4,0.4,4.2-1.1l4.8-8.3c14.3,6.4,31.6,1.2,39.6-12.8c11.9-20.6,5.9-65,5.6-66.9C111.2,33.3,109,32,107.3,32.7z M64,106.4 c-9.8-7.5-12.8-21.2-6.5-32.3c0.9-1.6,2.1-3.2,3.5-4.8l9.8,25.2L64,106.4z M74.8,87.6l-9.1-23.2c3.3-3,7.2-6,11.2-8.6L83.3,73 L74.8,87.6L74.8,87.6z M87.3,66l-5-13.6c6.8-4.1,13.5-7.6,18.6-10L87.3,66z M106.3,45.5c0.5,5.6,0.8,13.2,0.7,21.1l-14.3,2.5 L106.3,45.5z M88.7,76.1l18-3.1c-0.3,4.8-0.9,9.6-1.9,14l-24.6,3.7L88.7,76.1L88.7,76.1z M76.2,97.6l26.7-4.1 c-0.7,2-1.5,3.8-2.4,5.4c-6.4,11-19.8,15.3-31.2,10.5L76.2,97.6z"></path> </svg> 