<?xml version="1.0" encoding="UTF-8"?> <!-- Generator: Adobe Illustrator 20.1.0, SVG Export Plug-In . SVG Version: 6.00 Build 0) --> <svg xmlns="http://www.w3.org/2000/svg" xmlns:xlink="http://www.w3.org/1999/xlink" id="Capa_1" x="0px" y="0px" viewBox="0 0 480 480" style="enable-background:new 0 0 480 480;" xml:space="preserve"> <style type="text/css"> .st0{fill:none;} </style> <path d="M460.4,297.2l-147.9-87.4c-6.9-4.1-12.8-9.9-16.9-16.8l-6.9,4.1l6.7-4.4c-10.2-16.9-27.6-28.2-47.1-30.8 c0.4-8.5,4.4-16.3,11-21.7l11.6-9.3c19.8-15.8,23-44.6,7.2-64.4c-8.7-10.9-21.9-17.2-35.8-17.2h-4.4c-25.3,0-45.8,20.5-45.8,45.8 v18.2h16V95.2c0-16.5,13.4-29.8,29.8-29.8h4.4c16.5,0,29.8,13.4,29.8,29.8c0,9.1-4.1,17.6-11.2,23.3l-11.6,9.3 c-10.4,8.3-16.7,20.8-17.1,34.1c-19.8,2.5-37.3,14-47.6,31.1c-4.2,6.9-10,12.7-16.9,16.8L19.6,297.2C7.5,304.4,0,317.5,0,331.6v29.7 c0,4.4,3.6,8,8,8c1.4,0,2.8-0.4,4-1.1l25.5-14.9h405.1l25.5,14.9c3.8,2.2,8.7,0.9,10.9-2.9c0.7-1.2,1.1-2.6,1.1-4v-29.7 C480,317.5,472.5,304.4,460.4,297.2z M64.8,337.4L240,234.6l175.2,102.7H64.8z M464,347.4l-16-9.4v-0.6h-1.1L244,218.5 c-2.5-1.5-5.6-1.5-8.1,0L33.1,337.4H32v0.7l-16,9.3v-15.7c0-8.5,4.5-16.3,11.8-20.7l147.9-87.4c9.3-5.5,17.1-13.3,22.7-22.6 c13.8-23,43.6-30.4,66.6-16.6c6.8,4.1,12.5,9.8,16.6,16.6l0.2,0.3c5.5,9.2,13.3,16.9,22.5,22.3L452.2,311 c7.3,4.3,11.8,12.2,11.8,20.7V347.4z"></path> <rect x="-1" y="-2.1" class="st0" width="15" height="476"></rect> </svg> 